PathFileType	4	(X/Y/Z)	/Users/itak/Documents/Research/Walk-IL/dataset/trc/00474_00167.trc
DataRate	CameraRate	NumFrames	NumMarkers	Units	OrigDataRate	OrigDataStartFrame	OrigNumFrames
100.000000	100.000000	4	53	mm	100.000000	352	564
Frame#	Time	RPSI			LPSI			L3			STRN			T10			C7			CLAV			RBAK			LBAK			LSHO			LUPA			LAEL			LAOL			LWTS			LWPS			LFRA			LIFD			LHPS			LHTS			RSHO			RUPA			RAEL			RAOL			RWTS			RWPS			RFRA			RIFD			RHTS			RHPS			RBHD			LFHD			RFHD			LBHD			LHIP			RHIP			RASI			LASI			LKNE			LTHI			LANK			LTIP			LTOE			LMT1			LMT5			LHEE			RKNE			RTHI			RANK			RTIP			RTOE			RMT1			RMT5			RHEE			
		X1	Y1	Z1	X2	Y2	Z2	X3	Y3	Z3	X4	Y4	Z4	X5	Y5	Z5	X6	Y6	Z6	X7	Y7	Z7	X8	Y8	Z8	X9	Y9	Z9	X10	Y10	Z10	X11	Y11	Z11	X12	Y12	Z12	X13	Y13	Z13	X14	Y14	Z14	X15	Y15	Z15	X16	Y16	Z16	X17	Y17	Z17	X18	Y18	Z18	X19	Y19	Z19	X20	Y20	Z20	X21	Y21	Z21	X22	Y22	Z22	X23	Y23	Z23	X24	Y24	Z24	X25	Y25	Z25	X26	Y26	Z26	X27	Y27	Z27	X28	Y28	Z28	X29	Y29	Z29	X30	Y30	Z30	X31	Y31	Z31	X32	Y32	Z32	X33	Y33	Z33	X34	Y34	Z34	X35	Y35	Z35	X36	Y36	Z36	X37	Y37	Z37	X38	Y38	Z38	X39	Y39	Z39	X40	Y40	Z40	X41	Y41	Z41	X42	Y42	Z42	X43	Y43	Z43	X44	Y44	Z44	X45	Y45	Z45	X46	Y46	Z46	X47	Y47	Z47	X48	Y48	Z48	X49	Y49	Z49	X50	Y50	Z50	X51	Y51	Z51	X52	Y52	Z52	X53	Y53	Z53	

353	3.52	594.3209228515625	978.7582397460938	-469.8907165527344	614.366943359375	981.856689453125	-328.1136779785156	579.6997680664062	1091.279663085938	-431.7027893066406	292.2934265136719	1269.1630859375	-356.2272033691406	574.3017578125	1216.089721679688	-440.5757141113281	481.6163635253906	1476.993530273438	-435.3000793457031	321.8514709472656	1383.95556640625	-363.6843566894531	522.5888061523438	1360.972534179688	-543.7080688476562	550.6099853515625	1435.076049804688	-353.6650085449219	478.5738220214844	1452.556640625	-247.3402099609375	537.1585083007812	1352.646728515625	-151.2703552246094	545.2109985351562	1158.758544921875	-81.45600891113281	606.1663208007812	1115.710205078125	-157.0817260742188	359.4852294921875	1054.19189453125	-129.0979461669922	390.4715576171875	1005.091430664062	-81.37403106689453	479.3203430175781	1096.589233398438	-74.44961547851562	257.6954956054688	931.1463012695312	-120.7814102172852	337.6301879882812	951.5100708007812	-82.456298828125	294.6650085449219	997.4752197265625	-118.9399642944336	371.5836486816406	1441.556274414062	-565.5894165039062	367.0370788574219	1383.27880859375	-644.4559326171875	360.1447143554688	1100.199462890625	-709.732421875	422.9282836914062	1088.146850585938	-687.5144653320312	300.9571533203125	880.597900390625	-661.8588256835938	349.11328125	883.7328491210938	-737.0557250976562	360.9789733886719	1043.527954101562	-724.994140625	309.3732604980469	728.6314697265625	-699.4386596679688	290.9905700683594	784.4641723632812	-685.9282836914062	339.7473449707031	796.9886474609375	-746.12353515625	340.588134765625	1656.09033203125	-488.5625	240.6622924804688	1651.329711914062	-308.2356567382812	214.2527160644531	1641.840698242188	-435.4757385253906	390.4458312988281	1677.589111328125	-319.4194946289062	469.1018371582031	925.9176635742188	-178.6736297607422	461.8545532226562	869.1649780273438	-578.7614135742188	363.8977355957031	915.9441528320312	-512.6469116210938	384.8504638671875	964.67822265625	-268.7618408203125	210.4943695068359	590.611572265625	-165.7463836669922	285.5444030761719	726.4152221679688	-165.9692077636719	63.20780563354492	198.6961517333984	-106.0315093994141	140.8884429931641	459.525634765625	-130.5241394042969	-139.125244140625	291.4752502441406	-190.9825286865234	-69.52850341796875	259.6969299316406	-215.4425659179688	-71.00680541992188	264.6797485351562	-104.7672805786133	108.1857681274414	178.7770690917969	-165.7836151123047	467.3736877441406	484.3345336914062	-512.3909912109375	420.6984558105469	735.4129638671875	-565.9986572265625	657.15771484375	87.27406311035156	-531.2074584960938	505.1209106445312	339.991455078125	-514.4892578125	564.1043090820312	37.05835723876953	-346.0757751464844	619.344482421875	53.78828048706055	-374.6382141113281	558.8121337890625	37.83943939208984	-461.5469360351562	727.5451049804688	127.4596252441406	-538.5711059570312	
354	3.53	591.55517578125	977.9384765625	-467.2662658691406	610.368408203125	980.4817504882812	-325.3507385253906	577.2632446289062	1090.214599609375	-429.0016784667969	289.3355712890625	1268.533813476562	-357.0685119628906	571.9991455078125	1215.075927734375	-437.871826171875	479.7918395996094	1476.196166992188	-433.7142639160156	319.1244812011719	1383.277465820312	-364.031005859375	521.9848022460938	1360.250244140625	-541.699951171875	547.9163208007812	1434.167114257812	-351.42431640625	474.7463684082031	1451.3740234375	-245.8449401855469	532.3353271484375	1351.023315429688	-149.6370391845703	539.8005981445312	1156.931396484375	-80.34049224853516	600.9951782226562	1114.058471679688	-155.8202209472656	354.5758361816406	1051.849609375	-128.5377044677734	385.4745483398438	1002.768310546875	-80.70594787597656	474.047607421875	1094.571044921875	-73.54891204833984	252.9085540771484	928.6956787109375	-120.3084106445312	332.7916564941406	949.1248779296875	-81.93663024902344	289.7775268554688	995.0723876953125	-118.380989074707	371.2346801757812	1440.978393554688	-565.34814453125	367.6448059082031	1382.87255859375	-644.3634643554688	362.519287109375	1100.299926757812	-710.5598754882812	424.9456481933594	1088.465942382812	-687.3531494140625	304.1442565917969	879.6748657226562	-665.61572265625	353.8088684082031	884.0742797851562	-739.9454345703125	364.1159057617188	1043.778198242188	-726.2991943359375	314.7745361328125	728.0986938476562	-704.568115234375	295.5873718261719	783.6035766601562	-690.8781127929688	345.3370666503906	797.34326171875	-749.9783935546875	338.7479248046875	1655.409301757812	-488.1524353027344	237.4687652587891	1650.226928710938	-308.6771850585938	212.1227264404297	1640.911987304688	-436.1604309082031	387.3084716796875	1676.724853515625	-318.6595764160156	464.0455932617188	924.004150390625	-177.3271942138672	459.971435546875	868.7236938476562	-577.5906982421875	361.2853393554688	915.355712890625	-512.0993041992188	380.3509826660156	963.3180541992188	-267.7185363769531	205.3941345214844	588.6246337890625	-167.2740783691406	280.5319519042969	724.515380859375	-166.6391296386719	59.91365051269531	195.8095397949219	-109.2746887207031	136.0832214355469	457.0151672363281	-132.8052215576172	-142.7316589355469	286.1814575195312	-195.9550933837891	-72.51186370849609	255.2460021972656	-219.8063049316406	-74.84592437744141	260.5252685546875	-109.1117553710938	105.4191436767578	176.2135009765625	-168.7430267333984	465.412109375	483.8362426757812	-512.4937744140625	418.9503173828125	735.0283813476562	-565.6273803710938	657.2498779296875	87.2149658203125	-531.1719970703125	503.802978515625	339.595458984375	-514.9533081054688	563.4774780273438	37.07599258422852	-346.3528137207031	618.6826782226562	54.09295272827148	-374.7315063476562	558.7021484375	37.70500564575195	-461.845947265625	727.4817504882812	127.8568344116211	-538.1032104492188	
355	3.54	588.50439453125	977.1033935546875	-464.6050720214844	606.1207275390625	979.1043090820312	-322.5654907226562	574.5307006835938	1089.072143554688	-426.2298583984375	286.2244567871094	1267.859985351562	-357.9010620117188	569.4763793945312	1213.965454101562	-435.1574401855469	477.7991943359375	1475.31689453125	-432.1282653808594	316.2261047363281	1382.572265625	-364.359619140625	521.1654052734375	1359.432250976562	-539.6583251953125	545.0623168945312	1433.18505859375	-349.2018127441406	470.7751770019531	1450.140014648438	-244.38916015625	527.3753662109375	1349.383422851562	-148.0553283691406	534.3364868164062	1155.048706054688	-79.30805206298828	595.8052978515625	1112.437255859375	-154.6495666503906	349.7515563964844	1049.267211914062	-128.1459350585938	380.6123046875	1000.234619140625	-80.22614288330078	468.7769775390625	1092.433715820312	-72.75737762451172	248.2918701171875	925.9265747070312	-120.0744934082031	328.0933227539062	946.4725341796875	-81.61044311523438	285.0083618164062	992.3738403320312	-118.0033264160156	370.7084350585938	1440.361694335938	-565.0411376953125	368.0581970214844	1382.467407226562	-644.2147827148438	364.7165222167969	1100.337646484375	-711.3114013671875	426.8056335449219	1088.71875	-687.1658325195312	307.1828918457031	878.783203125	-668.8663330078125	358.1177062988281	884.260986328125	-742.3761596679688	367.0186157226562	1043.945678710938	-727.408203125	319.9716796875	727.5527954101562	-708.8784790039062	300.0482177734375	782.7679443359375	-695.1084594726562	350.6496276855469	797.617919921875	-753.2249145507812	336.7502746582031	1654.67529296875	-487.7015991210938	234.1835784912109	1649.056518554688	-309.04150390625	209.8482208251953	1639.944091796875	-436.7575073242188	384.0887451171875	1675.754272460938	-317.8930053710938	458.8081970214844	921.927001953125	-175.9823913574219	457.8765869140625	868.2473754882812	-576.3984375	358.4501037597656	914.6875610351562	-511.5721740722656	375.5753784179688	961.6909790039062	-266.6766662597656	200.6299896240234	586.156982421875	-168.741943359375	275.6172790527344	722.2242431640625	-167.2712554931641	56.79571151733398	192.4984893798828	-112.5254821777344	131.634765625	454.0568542480469	-135.0132141113281	-145.9895172119141	281.0225219726562	-200.7699432373047	-75.24001312255859	250.8282470703125	-224.0763397216797	-78.41570281982422	256.183837890625	-113.3749694824219	102.6679840087891	173.1594543457031	-171.7995300292969	463.27880859375	483.2518005371094	-512.6290283203125	417.0113220214844	734.5714721679688	-565.2426147460938	657.2823486328125	87.1260986328125	-531.1715087890625	502.3777770996094	339.1570129394531	-515.484130859375	562.7880859375	37.10124206542969	-346.669677734375	618.005859375	54.43328475952148	-374.8526000976562	558.5725708007812	37.56208419799805	-462.1744079589844	727.3663940429688	128.2103729248047	-537.7210083007812	
356	3.55	585.16943359375	976.2452392578125	-461.9144897460938	601.6166381835938	977.7178955078125	-319.76416015625	571.4818115234375	1087.839477539062	-423.3958129882812	282.9567565917969	1267.126342773438	-358.7065734863281	566.7532348632812	1212.747192382812	-432.4330749511719	475.6331787109375	1474.33935546875	-430.5387878417969	313.1726379394531	1381.814086914062	-364.6748352050781	520.1324462890625	1358.499389648438	-537.576416015625	542.0447387695312	1432.115966796875	-346.9891052246094	466.6566467285156	1448.842407226562	-242.9654541015625	522.2801513671875	1347.718994140625	-146.5086364746094	528.8096923828125	1153.102905273438	-78.32668304443359	590.5942993164062	1110.8408203125	-153.5303497314453	345.001708984375	1046.441650390625	-127.8934555053711	375.8850402832031	997.4825439453125	-79.91464233398438	463.506103515625	1090.168334960938	-72.04641723632812	243.86328125	922.8134155273438	-120.0804595947266	323.5481262207031	943.5360717773438	-81.46939849853516	280.35595703125	989.3640747070312	-117.7980270385742	370.0134887695312	1439.685668945312	-564.6722412109375	368.2972412109375	1382.038208007812	-644.008056640625	366.7530822753906	1100.29248046875	-711.9949951171875	428.5118103027344	1088.8759765625	-686.9482421875	310.0393981933594	877.900146484375	-671.6321411132812	362.0363464355469	884.2673950195312	-744.3828735351562	369.6805725097656	1043.999755859375	-728.3330688476562	324.8975524902344	726.9503784179688	-712.3552856445312	304.3034973144531	781.9220581054688	-698.6076049804688	355.6421813964844	797.7493896484375	-755.8683471679688	334.5994567871094	1653.872436523438	-487.2127685546875	230.8008728027344	1647.810424804688	-309.3285217285156	207.4201049804688	1638.924438476562	-437.2635803222656	380.7755737304688	1674.663452148438	-317.1087341308594	453.3586730957031	919.7261352539062	-174.6455841064453	455.5640258789062	867.7176513671875	-575.1847534179688	355.4311828613281	913.9403076171875	-511.0951232910156	370.5361938476562	959.8156127929688	-265.6647338867188	196.1592712402344	583.2357177734375	-170.1469879150391	270.7431030273438	719.5914916992188	-167.8788757324219	53.8685302734375	188.7592926025391	-115.8043899536133	127.5245513916016	450.6636962890625	-137.1542358398438	-148.9008636474609	276.0115051269531	-205.3854827880859	-77.73631286621094	246.4540405273438	-228.2359771728516	-81.69788360595703	251.6521606445312	-117.5327835083008	99.99755096435547	169.6420288085938	-174.9526672363281	460.9979553222656	482.5682678222656	-512.7998046875	414.8736572265625	734.0309448242188	-564.8457641601562	657.270751953125	87.01154327392578	-531.1998291015625	500.8637084960938	338.6605834960938	-516.0613403320312	562.060302734375	37.13959884643555	-347.0176696777344	617.3326416015625	54.79771423339844	-374.9968872070312	558.4291381835938	37.41639709472656	-462.5215454101562	727.2202758789062	128.5108795166016	-537.4149780273438	
